<svg width="100%" viewBox="0 0 700 320" role="img" xmlns="http://www.w3.org/2000/svg" font-family='"Anthropic Sans", -apple-system, "system-ui", "Segoe UI", sans-serif'><style>.t{font-size:15px;font-weight:500}.ts{font-size:12.5px;font-weight:400}.lbl{font-size:15px;font-weight:600}.cap{font-size:12.5px;font-weight:400}.muted{fill:#6B6A64}@media (prefers-color-scheme:dark){.muted{fill:#A8A69E}.dyn{fill:#E4E2D8}}</style><defs><marker id="ar" viewBox="0 0 10 10" refX="7" refY="5" markerWidth="6.5" markerHeight="6.5" orient="auto-start-reverse"><path d="M1 1L8 5L1 9" fill="none" stroke="#8A8A82" stroke-width="1.5" stroke-linecap="round" stroke-linejoin="round"/></marker></defs><text x="40" y="66" class="lbl muted">ETL</text><rect x="150" y="42" width="120" height="44" rx="11" fill="#F1EFE8" stroke="#A9A89F" stroke-width="1.3"/><text x="210.0" y="64.0" text-anchor="middle" class="t" fill="#3D3D3A" dominant-baseline="central">Extract</text><rect x="300" y="42" width="120" height="44" rx="11" fill="#EEEDFE" stroke="#9B92D8" stroke-width="1.3"/><text x="360.0" y="64.0" text-anchor="middle" class="t" fill="#3C3489" dominant-baseline="central">Transform</text><line x1="270" y1="64" x2="300" y2="64" stroke="#8A8A82" stroke-width="1.5" marker-end="url(#ar)"/><rect x="450" y="42" width="120" height="44" rx="11" fill="#E6F1FB" stroke="#6FA8DC" stroke-width="1.3"/><text x="510.0" y="64.0" text-anchor="middle" class="t" fill="#0C447C" dominant-baseline="central">Load</text><line x1="420" y1="64" x2="450" y2="64" stroke="#8A8A82" stroke-width="1.5" marker-end="url(#ar)"/><text x="606" y="68" text-anchor="start" class="ts" fill="#791F1F">raw discarded</text><text x="40" y="166" class="lbl muted">ELT</text><rect x="150" y="142" width="120" height="44" rx="11" fill="#F1EFE8" stroke="#A9A89F" stroke-width="1.3"/><text x="210.0" y="164.0" text-anchor="middle" class="t" fill="#3D3D3A" dominant-baseline="central">Extract</text><rect x="300" y="142" width="120" height="44" rx="11" fill="#E6F1FB" stroke="#6FA8DC" stroke-width="1.3"/><text x="360.0" y="164.0" text-anchor="middle" class="t" fill="#0C447C" dominant-baseline="central">Load</text><line x1="270" y1="164" x2="300" y2="164" stroke="#8A8A82" stroke-width="1.5" marker-end="url(#ar)"/><rect x="450" y="142" width="120" height="44" rx="11" fill="#EEEDFE" stroke="#9B92D8" stroke-width="1.3"/><text x="510.0" y="164.0" text-anchor="middle" class="t" fill="#3C3489" dominant-baseline="central">Transform</text><line x1="420" y1="164" x2="450" y2="164" stroke="#8A8A82" stroke-width="1.5" marker-end="url(#ar)"/><text x="606" y="168" text-anchor="start" class="ts" fill="#085041">raw preserved</text><text x="40" y="266" class="lbl muted">ELP</text><rect x="150" y="242" width="120" height="44" rx="11" fill="#F1EFE8" stroke="#A9A89F" stroke-width="1.3"/><text x="210.0" y="264.0" text-anchor="middle" class="t" fill="#3D3D3A" dominant-baseline="central">Extract</text><line x1="270" y1="264" x2="300" y2="264" stroke="#8A8A82" stroke-width="1.5" marker-end="url(#ar)"/><rect x="300" y="242" width="120" height="44" rx="11" fill="#E6F1FB" stroke="#6FA8DC" stroke-width="1.3"/><text x="360.0" y="264.0" text-anchor="middle" class="t" fill="#0C447C" dominant-baseline="central">Load</text><line x1="420" y1="264" x2="450" y2="264" stroke="#8A8A82" stroke-width="1.5" marker-end="url(#ar)"/><rect x="450" y="242" width="190" height="44" rx="11" fill="#E1F5EE" stroke="#5DCAA5" stroke-width="1.3"/><text x="545.0" y="256.0" text-anchor="middle" class="t" fill="#085041" dominant-baseline="central">Productize</text><text x="545.0" y="274.0" text-anchor="middle" class="ts" fill="#0F6E56" dominant-baseline="central">transform lives inside</text><text x="360" y="302" text-anchor="middle" class="cap" fill="#6B6A64">T stops being a phase. Physical and semantic are one object in P.</text></svg>